#!OML:ASF F:\VICON\USERDATA\INSTALL\rory3\rory3.ASF
:FULLY-SPECIFIED
:DEGREES
169
root -0.171222 16.322 -15.1501 0.740605 -0.991607 6.22555
lowerback 13.5822 0.0750532 -10.206
upperback -4.07411 -1.63995 1.24479
thorax -11.9199 0.0491687 7.5672
lowerneck -9.75397 -5.18878 -3.51749
upperneck 18.0435 -7.10071 2.85973
head 7.37212 -3.39379 0.845598
rclavicle 7.05686e-015 2.8625e-014
rhumerus -44.3656 -1.85833 -83.3913
rradius 25.2742
rwrist 9.81601
rhand -11.3396 22.1625
rfingers 7.12502
rthumb 14.6933 -7.29687
lclavicle 7.05686e-015 2.8625e-014
lhumerus -34.083 -1.81606 88.5914
lradius 29.5417
lwrist 4.5205
lhand -6.47152 18.44
lfingers 7.12502
lthumb 19.379 47.4944
rfemur -36.7329 6.20459 12.9361
rtibia 47.2486
rfoot -8.26374 -7.5597
rtoes 20.6597
lfemur 2.37044 -15.0893 -34.3989
ltibia 18.2142
lfoot -17.1542 11.1945
ltoes 7.91085
170
root -0.175589 16.3239 -15.035 1.01327 -1.11701 6.3767
lowerback 13.448 0.141384 -10.2402
upperback -4.12645 -1.56166 1.09371
thorax -11.92 0.0830386 7.39415
lowerneck -10.129 -5.24332 -3.4349
upperneck 18.2976 -7.20681 2.95102
head 7.52595 -3.42334 0.838132
rclavicle 1.28962e-014 -1.43125e-014
rhumerus -44.4842 -1.97571 -83.6901
rradius 25.3131
rwrist 9.6861
rhand -11.9244 22.637
rfingers 7.12502
rthumb 14.1298 -6.86252
lclavicle 1.28962e-014 -1.43125e-014
lhumerus -33.8861 -2.2738 88.6338
lradius 29.9141
lwrist 4.76894
lhand -6.37847 18.7305
lfingers 7.12502
lthumb 19.4685 47.7758
rfemur -36.8195 7.3646 12.2823
rtibia 44.6602
rfoot -8.67809 -8.14092
rtoes 21.634
lfemur 3.29856 -15.335 -34.6793
ltibia 16.9505
lfoot -17.1257 11.6937
ltoes 7.26302
171
root -0.178125 16.329 -14.9133 1.14293 -1.08772 6.47393
lowerback 13.2892 0.141885 -10.2106
upperback -4.09204 -1.54667 0.990775
thorax -11.7903 0.072958 7.25067
lowerneck -10.3962 -5.26305 -3.49158
upperneck 18.4822 -7.25739 3.12322
head 7.64492 -3.42998 0.888657
rclavicle -4.88265e-015 -1.19271e-014
rhumerus -44.5786 -2.24745 -83.802
rradius 25.354
rwrist 9.70579
rhand -12.1471 22.9959
rfingers 7.12502
rthumb 13.9152 -6.51846
lclavicle -4.88265e-015 -1.19271e-014
lhumerus -33.7478 -2.51914 88.6611
lradius 30.4858
lwrist 4.95267
lhand -6.35697 18.9466
lfingers 7.12502
lthumb 19.4892 47.9898
rfemur -36.6194 8.52006 11.611
rtibia 42.0443
rfoot -9.23667 -8.63021
rtoes 23.6004
lfemur 4.48272 -15.3665 -34.8959
ltibia 15.5533
lfoot -16.8665 11.9764
ltoes 5.91316
172
root -0.188039 16.3366 -14.7961 1.26669 -0.945386 6.46529
lowerback 13.284 0.100321 -10.2636
upperback -4.1236 -1.60975 1.02289
thorax -11.8096 0.0511022 7.33181
lowerneck -10.4698 -5.31181 -3.61592
upperneck 18.6357 -7.32894 3.23472
head 7.72054 -3.4598 0.933978
rclavicle 1.86361e-016 5.56597e-015
rhumerus -44.821 -2.09542 -83.9998
rradius 25.5553
rwrist 9.42857
rhand -11.3746 23.1788
rfingers 7.12502
rthumb 14.6597 -6.28298
lclavicle 1.86361e-016 5.56597e-015
lhumerus -33.7102 -2.339 88.6263
lradius 30.881
lwrist 4.75201
lhand -6.12657 18.5745
lfingers 7.12502
lthumb 19.7107 47.5952
rfemur -36.3822 9.84728 10.9805
rtibia 39.4894
rfoot -9.70305 -9.5917
rtoes 23.4452
lfemur 5.84422 -15.4444 -34.9331
ltibia 13.8037
lfoot -16.4092 12.047
ltoes 4.91987
173
root -0.200333 16.3479 -14.6844 1.53277 -0.738842 6.51941
lowerback 13.3032 0.049591 -10.3828
upperback -4.22268 -1.70336 1.06183
thorax -11.9148 0.0284585 7.46816
lowerneck -10.7075 -5.40237 -3.6382
upperneck 18.7026 -7.42832 3.15091
head 7.78653 -3.51215 0.892482
rclavicle 1.8077e-014 7.15625e-015
rhumerus -44.8886 -2.05345 -84.0933
rradius 25.5816
rwrist 9.462
rhand -9.8408 23.4585
rfingers 7.12502
rthumb 16.137 -5.88967
lclavicle 1.8077e-014 7.15625e-015
lhumerus -33.6333 -2.44476 88.7711
lradius 31.037
lwrist 4.8203
lhand -6.09154 18.0117
lfingers 7.12502
lthumb 19.7444 47.029
rfemur -36.3132 11.2414 10.1389
rtibia 36.9927
rfoot -10.1874 -10.771
rtoes 22.8088
lfemur 7.19133 -15.6019 -34.993
ltibia 11.8131
lfoot -15.7711 12.1867
ltoes 3.73706
174
root -0.208992 16.3582 -14.5692 1.76806 -0.613265 6.67863
lowerback 13.2044 0.00690562 -10.5054
upperback -4.2655 -1.77928 1.01349
thorax -11.8895 -0.000696449 7.49753
lowerneck -10.9611 -5.47567 -3.5335
upperneck 18.7764 -7.50722 2.96891
head 7.84776 -3.55492 0.799851
rclavicle -1.42628e-014 -2.38542e-015
rhumerus -44.831 -2.22618 -84.121
rradius 25.494
rwrist 9.99574
rhand -9.10277 22.8008
rfingers 7.12502
rthumb 16.8475 -6.48839
lclavicle -1.42628e-014 -2.38542e-015
lhumerus -33.5483 -2.88142 88.9822
lradius 31.3239
lwrist 5.51195
lhand -6.43269 18.0583
lfingers 7.12502
lthumb 19.4164 47.1089
rfemur -36.2248 12.7688 9.06551
rtibia 34.5504
rfoot -10.8765 -11.9776
rtoes 23.6443
lfemur 8.70447 -15.5303 -35.1793
ltibia 9.60034
lfoot -15.0979 12.0984
ltoes 3.00296
175
root -0.226033 16.3638 -14.4417 1.86762 -0.792187 6.53175
lowerback 12.955 0.0415979 -10.4804
upperback -4.23265 -1.69061 1.06466
thorax -11.7191 0.029126 7.51088
lowerneck -10.9952 -5.51964 -3.57665
upperneck 18.8649 -7.55046 2.9108
head 7.88416 -3.58264 0.781206
rclavicle 1.07344e-014 7.15625e-015
rhumerus -44.9406 -2.27528 -84.1901
rradius 25.558
rwrist 10.2351
rhand -9.22615 22.0875
rfingers 7.12502
rthumb 16.7287 -7.21172
lclavicle 1.07344e-014 7.15625e-015
lhumerus -33.5257 -2.88053 89.0119
lradius 31.7184
lwrist 5.89038
lhand -6.42933 18.1717
lfingers 7.12502
lthumb 19.4196 47.222
rfemur -36.129 14.9733 8.23501
rtibia 32.2945
rfoot -11.5649 -13.5116
rtoes 24.2736
lfemur 10.6662 -15.123 -35.0116
ltibia 6.81819
lfoot -14.4139 11.8868
ltoes 3.89191
176
root -0.250738 16.3735 -14.3124 1.87159 -1.17068 6.17943
lowerback 12.8431 0.15789 -10.4269
upperback -4.24299 -1.49448 1.22429
thorax -11.7023 0.125244 7.61423
lowerneck -10.5993 -5.46872 -3.81769
upperneck 18.6006 -7.49266 3.18643
head 7.74459 -3.55433 0.930328
rclavicle -2.57178e-015 -2.38542e-015
rhumerus -45.2016 -2.18194 -84.2856
rradius 25.5974
rwrist 10.2452
rhand -9.10801 22.2988
rfingers 7.12502
rthumb 16.8425 -6.99081
lclavicle -2.57178e-015 -2.38542e-015
lhumerus -33.6591 -2.73138 89.0245
lradius 32.0726
lwrist 5.94932
lhand -6.20766 18.2769
lfingers 7.12502
lthumb 19.6327 47.3056
rfemur -36.1886 17.7064 7.49992
rtibia 30.3623
rfoot -12.1849 -15.1423
rtoes 26.8699
lfemur 14.9982 -14.5069 -34.5483
ltibia 4.77083e-014
lfoot -11.8639 11.9089
ltoes 3.54757
177
root -0.262835 16.3705 -14.1882 2.01479 -1.04441 6.18141
lowerback 12.7952 0.137332 -10.4104
upperback -4.36299 -1.52149 1.2144
thorax -11.8069 0.122219 7.60064
lowerneck -10.1057 -5.45324 -4.01705
upperneck 18.2229 -7.50559 3.53603
head 7.55455 -3.55303 1.09255
rclavicle -4.12478e-015 1.59028e-014
rhumerus -45.5096 -2.38975 -84.2255
rradius 25.6154
rwrist 10.6246
rhand -9.21912 21.6504
rfingers 7.12502
rthumb 16.7355 -7.64829
lclavicle -4.12478e-015 1.59028e-014
lhumerus -33.804 -2.93605 89.1403
lradius 32.254
lwrist 6.07904
lhand -6.38446 18.2912
lfingers 7.12502
lthumb 19.4627 47.3371
rfemur -36.4528 19.7706 6.27766
rtibia 28.8538
rfoot -12.9532 -16.6442
rtoes 28.5888
lfemur 15.3479 -14.4065 -34.5574
ltibia 2.70347e-014
lfoot -12.1025 11.7374
ltoes 2.61102
178
root -0.268555 16.3681 -14.0518 2.05744 -0.244682 6.48221
lowerback 12.8273 -0.0721177 -10.4343
upperback -4.39789 -1.83058 1.05754
thorax -11.8042 -0.0291599 7.50576
lowerneck -9.95771 -5.48717 -3.92961
upperneck 18.0235 -7.58021 3.61911
head 7.46567 -3.5794 1.10391
rclavicle -9.7653e-015 -4.13472e-014
rhumerus -45.8103 -2.47948 -84.3666
rradius 25.8621
rwrist 10.1929
rhand -9.54578 21.0529
rfingers 7.12502
rthumb 16.421 -8.2721
lclavicle -9.7653e-015 -4.13472e-014
lhumerus -33.7872 -3.12107 89.1869
lradius 32.2786
lwrist 6.27816
lhand -6.59203 17.5728
lfingers 7.12502
lthumb 19.2632 46.6388
rfemur -36.4417 21.2486 4.83812
rtibia 27.7624
rfoot -13.9305 -18.2778
rtoes 29.3285
lfemur 15.9357 -14.9301 -34.9741
ltibia -9.54166e-015
lfoot -12.2829 11.6478
ltoes 1.32877
179
root -0.27185 16.3552 -13.9277 2.30763 -0.271107 6.778
lowerback 12.6941 -0.0584512 -10.6107
upperback -4.4382 -1.8392 0.974024
thorax -11.7701 -0.0248649 7.50968
lowerneck -10.013 -5.50901 -3.86609
upperneck 17.877 -7.60034 3.55677
head 7.42337 -3.59069 1.07139
rclavicle 8.31168e-015 -7.95139e-016
rhumerus -45.9489 -2.13399 -84.7279
rradius 26.1561
rwrist 9.00854
rhand -9.48317 20.7718
rfingers 7.12502
rthumb 16.4813 -8.5482
lclavicle 8.31168e-015 -7.95139e-016
lhumerus -33.5939 -2.98989 89.2122
lradius 32.2852
lwrist 6.40221
lhand -6.60583 17.4932
lfingers 7.12502
lthumb 19.2499 46.5605
rfemur -37.1087 22.1671 3.67331
rtibia 27.0447
rfoot -14.1739 -18.8836
rtoes 29.4791
lfemur 16.1736 -14.7076 -35.3137
ltibia -9.54166e-015
lfoot -12.5995 11.4883
ltoes 0.605876
180
root -0.286387 16.3446 -13.8045 2.57803 0.136404 6.9874
lowerback 12.7276 -0.152788 -10.6978
upperback -4.63386 -2.00497 0.909869
thorax -11.9833 -0.0779265 7.52894
lowerneck -9.79583 -5.61313 -3.84967
upperneck 17.8354 -7.72984 3.44011
head 7.37099 -3.6657 1.02479
rclavicle -4.58447e-015 -3.18055e-015
rhumerus -46.4141 -1.92107 -84.9337
rradius 26.3782
rwrist 8.46242
rhand -9.38848 20.2459
rfingers 7.12502
rthumb 16.5725 -9.06648
lclavicle -4.58447e-015 -3.18055e-015
lhumerus -33.8736 -2.70208 89.1832
lradius 32.6248
lwrist 6.00377
lhand -6.05764 18.107
lfingers 7.12502
lthumb 19.7769 47.1208
rfemur -37.6132 22.9686 2.63082
rtibia 26.5332
rfoot -15.2647 -19.4596
rtoes 30.8101
lfemur 16.4077 -14.9228 -35.4926
ltibia -1.59028e-014
lfoot -12.9636 11.2965
ltoes -0.0385909
